<mxfile host="Electron" modified="2023-10-10T11:52:13.045Z" agent="Mozilla/5.0 (Windows NT 10.0; Win64; x64) AppleWebKit/537.36 (KHTML, like Gecko) draw.io/22.0.2 Chrome/114.0.5735.289 Electron/25.8.4 Safari/537.36" etag="Qt92hDi5g3vmn6EBxyuN" version="22.0.2" type="device">
  <diagram id="ZzrY9_B9jC9xOs_7Z7fI" name="Page-1">
    <mxGraphModel dx="4550" dy="2360" grid="1" gridSize="10" guides="1" tooltips="1" connect="1" arrows="1" fold="1" page="1" pageScale="1" pageWidth="850" pageHeight="1100" math="0" shadow="0">
      <root>
        <mxCell id="0" />
        <mxCell id="1" parent="0" />
        <mxCell id="ZZLIBxus0vvLPx7DRHmL-3" value="" style="rounded=0;whiteSpace=wrap;html=1;fillColor=#dae8fc;strokeColor=#0000FF;strokeWidth=5;" vertex="1" parent="1">
          <mxGeometry x="-485" y="10" width="2065" height="1050" as="geometry" />
        </mxCell>
        <mxCell id="ZZLIBxus0vvLPx7DRHmL-1" value="" style="rounded=0;whiteSpace=wrap;html=1;fillColor=#fff2cc;strokeColor=#0000FF;strokeWidth=3;" vertex="1" parent="1">
          <mxGeometry x="-360" y="95" width="830" height="880" as="geometry" />
        </mxCell>
        <mxCell id="ZZLIBxus0vvLPx7DRHmL-2" value="" style="rounded=0;whiteSpace=wrap;html=1;fillColor=#d5e8d4;strokeColor=#0000FF;" vertex="1" parent="1">
          <mxGeometry x="610" y="110" width="830" height="400" as="geometry" />
        </mxCell>
        <mxCell id="ZZLIBxus0vvLPx7DRHmL-9" value="&lt;font style=&quot;font-size: 18px;&quot;&gt;Interract with cluster using:&lt;br&gt;&lt;/font&gt;&lt;div style=&quot;text-align: left; font-size: 18px;&quot;&gt;&lt;ol style=&quot;&quot;&gt;&lt;li style=&quot;&quot;&gt;&lt;span style=&quot;background-color: initial;&quot;&gt;&lt;font style=&quot;font-size: 18px;&quot;&gt;GUI(Rancher or cloud)&lt;/font&gt;&lt;/span&gt;&lt;/li&gt;&lt;li style=&quot;&quot;&gt;&lt;span style=&quot;background-color: initial;&quot;&gt;&lt;font style=&quot;font-size: 18px;&quot;&gt;cli (kubectl)&lt;/font&gt;&lt;/span&gt;&lt;/li&gt;&lt;/ol&gt;&lt;/div&gt;" style="rounded=0;whiteSpace=wrap;html=1;fillColor=#0050ef;fontColor=#ffffff;strokeColor=#001DBC;" vertex="1" parent="1">
          <mxGeometry x="-710" y="600" width="200" height="150" as="geometry" />
        </mxCell>
        <mxCell id="ZZLIBxus0vvLPx7DRHmL-10" value="&lt;font style=&quot;font-size: 18px;&quot;&gt;Control Plane (Master Node)&lt;/font&gt;" style="rounded=0;whiteSpace=wrap;html=1;strokeColor=#001DBC;fillColor=#0050ef;fontColor=#ffffff;" vertex="1" parent="1">
          <mxGeometry x="-360" y="95" width="830" height="30" as="geometry" />
        </mxCell>
        <mxCell id="ZZLIBxus0vvLPx7DRHmL-13" value="" style="rounded=0;whiteSpace=wrap;html=1;" vertex="1" parent="1">
          <mxGeometry x="-260" y="280" width="280" height="130" as="geometry" />
        </mxCell>
        <mxCell id="ZZLIBxus0vvLPx7DRHmL-11" value="" style="sketch=0;html=1;dashed=0;whitespace=wrap;fillColor=#2875E2;strokeColor=#ffffff;points=[[0.005,0.63,0],[0.1,0.2,0],[0.9,0.2,0],[0.5,0,0],[0.995,0.63,0],[0.72,0.99,0],[0.5,1,0],[0.28,0.99,0]];verticalLabelPosition=bottom;align=center;verticalAlign=top;shape=mxgraph.kubernetes.icon;prIcon=etcd" vertex="1" parent="1">
          <mxGeometry x="-215" y="310" width="190" height="92" as="geometry" />
        </mxCell>
        <mxCell id="ZZLIBxus0vvLPx7DRHmL-15" value="&lt;span style=&quot;font-size: 18px;&quot;&gt;Database (key-value store) ETCD&lt;/span&gt;" style="rounded=0;whiteSpace=wrap;html=1;strokeColor=#001DBC;fillColor=#0050ef;fontColor=#ffffff;" vertex="1" parent="1">
          <mxGeometry x="-260" y="280" width="280" height="30" as="geometry" />
        </mxCell>
        <mxCell id="ZZLIBxus0vvLPx7DRHmL-17" value="" style="rounded=0;whiteSpace=wrap;html=1;" vertex="1" parent="1">
          <mxGeometry x="110" y="280" width="280" height="130" as="geometry" />
        </mxCell>
        <mxCell id="ZZLIBxus0vvLPx7DRHmL-18" value="&lt;span style=&quot;font-size: 18px;&quot;&gt;Cloud Controler Manager&lt;/span&gt;" style="rounded=0;whiteSpace=wrap;html=1;strokeColor=#001DBC;fillColor=#0050ef;fontColor=#ffffff;" vertex="1" parent="1">
          <mxGeometry x="110" y="280" width="280" height="30" as="geometry" />
        </mxCell>
        <mxCell id="ZZLIBxus0vvLPx7DRHmL-19" value="" style="sketch=0;html=1;dashed=0;whitespace=wrap;fillColor=#2875E2;strokeColor=#ffffff;points=[[0.005,0.63,0],[0.1,0.2,0],[0.9,0.2,0],[0.5,0,0],[0.995,0.63,0],[0.72,0.99,0],[0.5,1,0],[0.28,0.99,0]];verticalLabelPosition=bottom;align=center;verticalAlign=top;shape=mxgraph.kubernetes.icon;prIcon=c_c_m" vertex="1" parent="1">
          <mxGeometry x="209.16" y="318" width="91.67" height="88" as="geometry" />
        </mxCell>
        <mxCell id="ZZLIBxus0vvLPx7DRHmL-20" value="" style="rounded=0;whiteSpace=wrap;html=1;" vertex="1" parent="1">
          <mxGeometry x="-260" y="490" width="650" height="250" as="geometry" />
        </mxCell>
        <mxCell id="ZZLIBxus0vvLPx7DRHmL-21" value="&lt;span style=&quot;font-size: 18px;&quot;&gt;API Server&lt;/span&gt;" style="rounded=0;whiteSpace=wrap;html=1;strokeColor=#001DBC;fillColor=#0050ef;fontColor=#ffffff;" vertex="1" parent="1">
          <mxGeometry x="-260" y="490" width="650" height="30" as="geometry" />
        </mxCell>
        <mxCell id="ZZLIBxus0vvLPx7DRHmL-22" value="" style="sketch=0;html=1;dashed=0;whitespace=wrap;fillColor=#2875E2;strokeColor=#ffffff;points=[[0.005,0.63,0],[0.1,0.2,0],[0.9,0.2,0],[0.5,0,0],[0.995,0.63,0],[0.72,0.99,0],[0.5,1,0],[0.28,0.99,0]];verticalLabelPosition=bottom;align=center;verticalAlign=top;shape=mxgraph.kubernetes.icon;prIcon=api" vertex="1" parent="1">
          <mxGeometry x="-49.58000000000001" y="520" width="229.16" height="220" as="geometry" />
        </mxCell>
        <mxCell id="ZZLIBxus0vvLPx7DRHmL-23" value="" style="rounded=0;whiteSpace=wrap;html=1;" vertex="1" parent="1">
          <mxGeometry x="-260" y="809" width="280" height="130" as="geometry" />
        </mxCell>
        <mxCell id="ZZLIBxus0vvLPx7DRHmL-24" value="&lt;span style=&quot;font-size: 18px;&quot;&gt;Scheduler&lt;/span&gt;" style="rounded=0;whiteSpace=wrap;html=1;strokeColor=#001DBC;fillColor=#0050ef;fontColor=#ffffff;" vertex="1" parent="1">
          <mxGeometry x="-260" y="808" width="280" height="32" as="geometry" />
        </mxCell>
        <mxCell id="ZZLIBxus0vvLPx7DRHmL-28" value="" style="rounded=0;whiteSpace=wrap;html=1;" vertex="1" parent="1">
          <mxGeometry x="114.99000000000001" y="809" width="280" height="130" as="geometry" />
        </mxCell>
        <mxCell id="ZZLIBxus0vvLPx7DRHmL-29" value="&lt;span style=&quot;font-size: 18px;&quot;&gt;Controller Manager&lt;/span&gt;" style="rounded=0;whiteSpace=wrap;html=1;strokeColor=#001DBC;fillColor=#0050ef;fontColor=#ffffff;" vertex="1" parent="1">
          <mxGeometry x="114.99000000000001" y="809" width="280" height="30" as="geometry" />
        </mxCell>
        <mxCell id="ZZLIBxus0vvLPx7DRHmL-30" value="" style="sketch=0;html=1;dashed=0;whitespace=wrap;fillColor=#2875E2;strokeColor=#ffffff;points=[[0.005,0.63,0],[0.1,0.2,0],[0.9,0.2,0],[0.5,0,0],[0.995,0.63,0],[0.72,0.99,0],[0.5,1,0],[0.28,0.99,0]];verticalLabelPosition=bottom;align=center;verticalAlign=top;shape=mxgraph.kubernetes.icon;prIcon=c_m" vertex="1" parent="1">
          <mxGeometry x="210" y="840" width="91.67" height="88" as="geometry" />
        </mxCell>
        <mxCell id="ZZLIBxus0vvLPx7DRHmL-31" value="" style="sketch=0;html=1;dashed=0;whitespace=wrap;fillColor=#2875E2;strokeColor=#ffffff;points=[[0.005,0.63,0],[0.1,0.2,0],[0.9,0.2,0],[0.5,0,0],[0.995,0.63,0],[0.72,0.99,0],[0.5,1,0],[0.28,0.99,0]];verticalLabelPosition=bottom;align=center;verticalAlign=top;shape=mxgraph.kubernetes.icon;prIcon=master" vertex="1" parent="1">
          <mxGeometry x="-1.670000000000016" y="125" width="133.33" height="128" as="geometry" />
        </mxCell>
        <mxCell id="ZZLIBxus0vvLPx7DRHmL-32" value="" style="sketch=0;html=1;dashed=0;whitespace=wrap;fillColor=#2875E2;strokeColor=#ffffff;points=[[0.005,0.63,0],[0.1,0.2,0],[0.9,0.2,0],[0.5,0,0],[0.995,0.63,0],[0.72,0.99,0],[0.5,1,0],[0.28,0.99,0]];verticalLabelPosition=bottom;align=center;verticalAlign=top;shape=mxgraph.kubernetes.icon;prIcon=cronjob" vertex="1" parent="1">
          <mxGeometry x="-165.82999999999998" y="840" width="91.67" height="88" as="geometry" />
        </mxCell>
        <mxCell id="ZZLIBxus0vvLPx7DRHmL-35" style="edgeStyle=orthogonalEdgeStyle;rounded=0;orthogonalLoop=1;jettySize=auto;html=1;entryX=0;entryY=0.5;entryDx=0;entryDy=0;" edge="1" parent="1" source="ZZLIBxus0vvLPx7DRHmL-33" target="ZZLIBxus0vvLPx7DRHmL-3">
          <mxGeometry relative="1" as="geometry" />
        </mxCell>
        <mxCell id="ZZLIBxus0vvLPx7DRHmL-33" value="" style="sketch=0;html=1;dashed=0;whitespace=wrap;fillColor=#2875E2;strokeColor=#ffffff;points=[[0.005,0.63,0],[0.1,0.2,0],[0.9,0.2,0],[0.5,0,0],[0.995,0.63,0],[0.72,0.99,0],[0.5,1,0],[0.28,0.99,0]];verticalLabelPosition=bottom;align=center;verticalAlign=top;shape=mxgraph.kubernetes.icon;prIcon=user" vertex="1" parent="1">
          <mxGeometry x="-710" y="479" width="116.67" height="112" as="geometry" />
        </mxCell>
        <mxCell id="ZZLIBxus0vvLPx7DRHmL-39" value="" style="rounded=0;whiteSpace=wrap;html=1;fillColor=none;dashed=1;" vertex="1" parent="1">
          <mxGeometry x="570" y="50" width="930" height="990" as="geometry" />
        </mxCell>
        <mxCell id="ZZLIBxus0vvLPx7DRHmL-38" value="&lt;font style=&quot;font-size: 18px;&quot;&gt;Worker (Slave Node)&lt;/font&gt;" style="rounded=0;whiteSpace=wrap;html=1;strokeColor=#001DBC;fillColor=#0050ef;fontColor=#ffffff;" vertex="1" parent="1">
          <mxGeometry x="610" y="110" width="830" height="30" as="geometry" />
        </mxCell>
        <mxCell id="ZZLIBxus0vvLPx7DRHmL-40" value="&lt;font style=&quot;font-size: 18px;&quot;&gt;Data Plane&lt;/font&gt;" style="rounded=0;whiteSpace=wrap;html=1;strokeColor=#001DBC;fillColor=#0050ef;fontColor=#ffffff;" vertex="1" parent="1">
          <mxGeometry x="570" y="50" width="930" height="30" as="geometry" />
        </mxCell>
        <mxCell id="ZZLIBxus0vvLPx7DRHmL-42" value="" style="rounded=0;whiteSpace=wrap;html=1;" vertex="1" parent="1">
          <mxGeometry x="650" y="180" width="280" height="130" as="geometry" />
        </mxCell>
        <mxCell id="ZZLIBxus0vvLPx7DRHmL-43" value="&lt;span style=&quot;font-size: 18px;&quot;&gt;kubelet&lt;/span&gt;" style="rounded=0;whiteSpace=wrap;html=1;strokeColor=#001DBC;fillColor=#0050ef;fontColor=#ffffff;" vertex="1" parent="1">
          <mxGeometry x="650" y="180" width="280" height="30" as="geometry" />
        </mxCell>
        <mxCell id="ZZLIBxus0vvLPx7DRHmL-44" value="" style="sketch=0;html=1;dashed=0;whitespace=wrap;fillColor=#2875E2;strokeColor=#ffffff;points=[[0.005,0.63,0],[0.1,0.2,0],[0.9,0.2,0],[0.5,0,0],[0.995,0.63,0],[0.72,0.99,0],[0.5,1,0],[0.28,0.99,0]];verticalLabelPosition=bottom;align=center;verticalAlign=top;shape=mxgraph.kubernetes.icon;prIcon=kubelet" vertex="1" parent="1">
          <mxGeometry x="740" y="224" width="90" height="78" as="geometry" />
        </mxCell>
        <mxCell id="ZZLIBxus0vvLPx7DRHmL-46" value="" style="rounded=0;whiteSpace=wrap;html=1;" vertex="1" parent="1">
          <mxGeometry x="1120" y="180" width="280" height="130" as="geometry" />
        </mxCell>
        <mxCell id="ZZLIBxus0vvLPx7DRHmL-47" value="&lt;span style=&quot;font-size: 18px;&quot;&gt;Container Runtime&lt;/span&gt;" style="rounded=0;whiteSpace=wrap;html=1;strokeColor=#001DBC;fillColor=#0050ef;fontColor=#ffffff;" vertex="1" parent="1">
          <mxGeometry x="1120" y="180" width="280" height="30" as="geometry" />
        </mxCell>
        <mxCell id="ZZLIBxus0vvLPx7DRHmL-48" value="" style="sketch=0;html=1;dashed=0;whitespace=wrap;fillColor=#2875E2;strokeColor=#ffffff;points=[[0.005,0.63,0],[0.1,0.2,0],[0.9,0.2,0],[0.5,0,0],[0.995,0.63,0],[0.72,0.99,0],[0.5,1,0],[0.28,0.99,0]];verticalLabelPosition=bottom;align=center;verticalAlign=top;shape=mxgraph.kubernetes.icon;prIcon=pod" vertex="1" parent="1">
          <mxGeometry x="1160" y="239" width="50" height="48" as="geometry" />
        </mxCell>
        <mxCell id="ZZLIBxus0vvLPx7DRHmL-49" value="" style="sketch=0;html=1;dashed=0;whitespace=wrap;fillColor=#2875E2;strokeColor=#ffffff;points=[[0.005,0.63,0],[0.1,0.2,0],[0.9,0.2,0],[0.5,0,0],[0.995,0.63,0],[0.72,0.99,0],[0.5,1,0],[0.28,0.99,0]];verticalLabelPosition=bottom;align=center;verticalAlign=top;shape=mxgraph.kubernetes.icon;prIcon=pod" vertex="1" parent="1">
          <mxGeometry x="1230" y="239" width="50" height="48" as="geometry" />
        </mxCell>
        <mxCell id="ZZLIBxus0vvLPx7DRHmL-50" value="" style="sketch=0;html=1;dashed=0;whitespace=wrap;fillColor=#2875E2;strokeColor=#ffffff;points=[[0.005,0.63,0],[0.1,0.2,0],[0.9,0.2,0],[0.5,0,0],[0.995,0.63,0],[0.72,0.99,0],[0.5,1,0],[0.28,0.99,0]];verticalLabelPosition=bottom;align=center;verticalAlign=top;shape=mxgraph.kubernetes.icon;prIcon=pod" vertex="1" parent="1">
          <mxGeometry x="1300" y="239" width="50" height="48" as="geometry" />
        </mxCell>
        <mxCell id="ZZLIBxus0vvLPx7DRHmL-51" value="" style="rounded=0;whiteSpace=wrap;html=1;" vertex="1" parent="1">
          <mxGeometry x="1120" y="332" width="280" height="130" as="geometry" />
        </mxCell>
        <mxCell id="ZZLIBxus0vvLPx7DRHmL-52" value="&lt;span style=&quot;font-size: 18px;&quot;&gt;kube-proxy&lt;/span&gt;" style="rounded=0;whiteSpace=wrap;html=1;strokeColor=#001DBC;fillColor=#0050ef;fontColor=#ffffff;" vertex="1" parent="1">
          <mxGeometry x="1120" y="332" width="280" height="30" as="geometry" />
        </mxCell>
        <mxCell id="ZZLIBxus0vvLPx7DRHmL-53" value="" style="rounded=0;whiteSpace=wrap;html=1;" vertex="1" parent="1">
          <mxGeometry x="650" y="340" width="280" height="130" as="geometry" />
        </mxCell>
        <mxCell id="ZZLIBxus0vvLPx7DRHmL-54" value="&lt;span style=&quot;font-size: 18px;&quot;&gt;objects&lt;/span&gt;" style="rounded=0;whiteSpace=wrap;html=1;strokeColor=#001DBC;fillColor=#0050ef;fontColor=#ffffff;" vertex="1" parent="1">
          <mxGeometry x="650" y="340" width="280" height="30" as="geometry" />
        </mxCell>
        <mxCell id="ZZLIBxus0vvLPx7DRHmL-55" value="" style="sketch=0;html=1;dashed=0;whitespace=wrap;fillColor=#2875E2;strokeColor=#ffffff;points=[[0.005,0.63,0],[0.1,0.2,0],[0.9,0.2,0],[0.5,0,0],[0.995,0.63,0],[0.72,0.99,0],[0.5,1,0],[0.28,0.99,0]];verticalLabelPosition=bottom;align=center;verticalAlign=top;shape=mxgraph.kubernetes.icon;prIcon=deploy" vertex="1" parent="1">
          <mxGeometry x="670" y="381" width="50" height="48" as="geometry" />
        </mxCell>
        <mxCell id="ZZLIBxus0vvLPx7DRHmL-65" style="edgeStyle=orthogonalEdgeStyle;rounded=0;orthogonalLoop=1;jettySize=auto;html=1;entryX=0.005;entryY=0.63;entryDx=0;entryDy=0;entryPerimeter=0;strokeWidth=3;" edge="1" parent="1" source="ZZLIBxus0vvLPx7DRHmL-56" target="ZZLIBxus0vvLPx7DRHmL-62">
          <mxGeometry relative="1" as="geometry">
            <mxPoint x="1650" y="470" as="targetPoint" />
            <Array as="points">
              <mxPoint x="1620" y="414" />
              <mxPoint x="1620" y="600" />
              <mxPoint x="1701" y="600" />
            </Array>
          </mxGeometry>
        </mxCell>
        <mxCell id="ZZLIBxus0vvLPx7DRHmL-56" value="" style="sketch=0;html=1;dashed=0;whitespace=wrap;fillColor=#2875E2;strokeColor=#ffffff;points=[[0.005,0.63,0],[0.1,0.2,0],[0.9,0.2,0],[0.5,0,0],[0.995,0.63,0],[0.72,0.99,0],[0.5,1,0],[0.28,0.99,0]];verticalLabelPosition=bottom;align=center;verticalAlign=top;shape=mxgraph.kubernetes.icon;prIcon=ing" vertex="1" parent="1">
          <mxGeometry x="1370" y="382" width="50" height="48" as="geometry" />
        </mxCell>
        <mxCell id="ZZLIBxus0vvLPx7DRHmL-57" value="" style="sketch=0;html=1;dashed=0;whitespace=wrap;fillColor=#2875E2;strokeColor=#ffffff;points=[[0.005,0.63,0],[0.1,0.2,0],[0.9,0.2,0],[0.5,0,0],[0.995,0.63,0],[0.72,0.99,0],[0.5,1,0],[0.28,0.99,0]];verticalLabelPosition=bottom;align=center;verticalAlign=top;shape=mxgraph.kubernetes.icon;prIcon=k_proxy" vertex="1" parent="1">
          <mxGeometry x="1230" y="392" width="50" height="48" as="geometry" />
        </mxCell>
        <mxCell id="ZZLIBxus0vvLPx7DRHmL-58" value="" style="sketch=0;html=1;dashed=0;whitespace=wrap;fillColor=#2875E2;strokeColor=#ffffff;points=[[0.005,0.63,0],[0.1,0.2,0],[0.9,0.2,0],[0.5,0,0],[0.995,0.63,0],[0.72,0.99,0],[0.5,1,0],[0.28,0.99,0]];verticalLabelPosition=bottom;align=center;verticalAlign=top;shape=mxgraph.kubernetes.icon;prIcon=node" vertex="1" parent="1">
          <mxGeometry x="958.33" y="140" width="133.33" height="128" as="geometry" />
        </mxCell>
        <mxCell id="ZZLIBxus0vvLPx7DRHmL-59" value="" style="sketch=0;html=1;dashed=0;whitespace=wrap;fillColor=#2875E2;strokeColor=#ffffff;points=[[0.005,0.63,0],[0.1,0.2,0],[0.9,0.2,0],[0.5,0,0],[0.995,0.63,0],[0.72,0.99,0],[0.5,1,0],[0.28,0.99,0]];verticalLabelPosition=bottom;align=center;verticalAlign=top;shape=mxgraph.kubernetes.icon;prIcon=sa" vertex="1" parent="1">
          <mxGeometry x="730" y="381" width="50" height="48" as="geometry" />
        </mxCell>
        <mxCell id="ZZLIBxus0vvLPx7DRHmL-60" value="" style="sketch=0;html=1;dashed=0;whitespace=wrap;fillColor=#2875E2;strokeColor=#ffffff;points=[[0.005,0.63,0],[0.1,0.2,0],[0.9,0.2,0],[0.5,0,0],[0.995,0.63,0],[0.72,0.99,0],[0.5,1,0],[0.28,0.99,0]];verticalLabelPosition=bottom;align=center;verticalAlign=top;shape=mxgraph.kubernetes.icon;prIcon=secret" vertex="1" parent="1">
          <mxGeometry x="790" y="381" width="50" height="48" as="geometry" />
        </mxCell>
        <mxCell id="ZZLIBxus0vvLPx7DRHmL-61" value="" style="sketch=0;html=1;dashed=0;whitespace=wrap;fillColor=#2875E2;strokeColor=#ffffff;points=[[0.005,0.63,0],[0.1,0.2,0],[0.9,0.2,0],[0.5,0,0],[0.995,0.63,0],[0.72,0.99,0],[0.5,1,0],[0.28,0.99,0]];verticalLabelPosition=bottom;align=center;verticalAlign=top;shape=mxgraph.kubernetes.icon;prIcon=svc" vertex="1" parent="1">
          <mxGeometry x="850" y="381" width="50" height="48" as="geometry" />
        </mxCell>
        <mxCell id="ZZLIBxus0vvLPx7DRHmL-62" value="" style="sketch=0;html=1;dashed=0;whitespace=wrap;fillColor=#2875E2;strokeColor=#ffffff;points=[[0.005,0.63,0],[0.1,0.2,0],[0.9,0.2,0],[0.5,0,0],[0.995,0.63,0],[0.72,0.99,0],[0.5,1,0],[0.28,0.99,0]];verticalLabelPosition=bottom;align=center;verticalAlign=top;shape=mxgraph.kubernetes.icon;prIcon=user" vertex="1" parent="1">
          <mxGeometry x="1720" y="534" width="110.42" height="106" as="geometry" />
        </mxCell>
        <mxCell id="ZZLIBxus0vvLPx7DRHmL-63" value="" style="sketch=0;html=1;dashed=0;whitespace=wrap;fillColor=#2875E2;strokeColor=#ffffff;points=[[0.005,0.63,0],[0.1,0.2,0],[0.9,0.2,0],[0.5,0,0],[0.995,0.63,0],[0.72,0.99,0],[0.5,1,0],[0.28,0.99,0]];verticalLabelPosition=bottom;align=center;verticalAlign=top;shape=mxgraph.kubernetes.icon;prIcon=user" vertex="1" parent="1">
          <mxGeometry x="1780.42" y="577" width="110.42" height="106" as="geometry" />
        </mxCell>
        <mxCell id="ZZLIBxus0vvLPx7DRHmL-64" value="" style="sketch=0;html=1;dashed=0;whitespace=wrap;fillColor=#2875E2;strokeColor=#ffffff;points=[[0.005,0.63,0],[0.1,0.2,0],[0.9,0.2,0],[0.5,0,0],[0.995,0.63,0],[0.72,0.99,0],[0.5,1,0],[0.28,0.99,0]];verticalLabelPosition=bottom;align=center;verticalAlign=top;shape=mxgraph.kubernetes.icon;prIcon=user" vertex="1" parent="1">
          <mxGeometry x="1700" y="610" width="110.42" height="106" as="geometry" />
        </mxCell>
        <mxCell id="ZZLIBxus0vvLPx7DRHmL-66" value="" style="rounded=0;whiteSpace=wrap;html=1;fillColor=#d5e8d4;strokeColor=#0000FF;" vertex="1" parent="1">
          <mxGeometry x="610" y="550" width="830" height="400" as="geometry" />
        </mxCell>
        <mxCell id="ZZLIBxus0vvLPx7DRHmL-67" value="&lt;font style=&quot;font-size: 18px;&quot;&gt;Worker (Slave Node)&lt;/font&gt;" style="rounded=0;whiteSpace=wrap;html=1;strokeColor=#001DBC;fillColor=#0050ef;fontColor=#ffffff;" vertex="1" parent="1">
          <mxGeometry x="610" y="550" width="830" height="30" as="geometry" />
        </mxCell>
        <mxCell id="ZZLIBxus0vvLPx7DRHmL-68" value="" style="rounded=0;whiteSpace=wrap;html=1;" vertex="1" parent="1">
          <mxGeometry x="650" y="620" width="280" height="130" as="geometry" />
        </mxCell>
        <mxCell id="ZZLIBxus0vvLPx7DRHmL-69" value="&lt;span style=&quot;font-size: 18px;&quot;&gt;kubelet&lt;/span&gt;" style="rounded=0;whiteSpace=wrap;html=1;strokeColor=#001DBC;fillColor=#0050ef;fontColor=#ffffff;" vertex="1" parent="1">
          <mxGeometry x="650" y="620" width="280" height="30" as="geometry" />
        </mxCell>
        <mxCell id="ZZLIBxus0vvLPx7DRHmL-70" value="" style="sketch=0;html=1;dashed=0;whitespace=wrap;fillColor=#2875E2;strokeColor=#ffffff;points=[[0.005,0.63,0],[0.1,0.2,0],[0.9,0.2,0],[0.5,0,0],[0.995,0.63,0],[0.72,0.99,0],[0.5,1,0],[0.28,0.99,0]];verticalLabelPosition=bottom;align=center;verticalAlign=top;shape=mxgraph.kubernetes.icon;prIcon=kubelet" vertex="1" parent="1">
          <mxGeometry x="740" y="664" width="90" height="78" as="geometry" />
        </mxCell>
        <mxCell id="ZZLIBxus0vvLPx7DRHmL-71" value="" style="rounded=0;whiteSpace=wrap;html=1;" vertex="1" parent="1">
          <mxGeometry x="1120" y="620" width="280" height="130" as="geometry" />
        </mxCell>
        <mxCell id="ZZLIBxus0vvLPx7DRHmL-72" value="&lt;span style=&quot;font-size: 18px;&quot;&gt;Container Runtime&lt;/span&gt;" style="rounded=0;whiteSpace=wrap;html=1;strokeColor=#001DBC;fillColor=#0050ef;fontColor=#ffffff;" vertex="1" parent="1">
          <mxGeometry x="1120" y="620" width="280" height="30" as="geometry" />
        </mxCell>
        <mxCell id="ZZLIBxus0vvLPx7DRHmL-73" value="" style="sketch=0;html=1;dashed=0;whitespace=wrap;fillColor=#2875E2;strokeColor=#ffffff;points=[[0.005,0.63,0],[0.1,0.2,0],[0.9,0.2,0],[0.5,0,0],[0.995,0.63,0],[0.72,0.99,0],[0.5,1,0],[0.28,0.99,0]];verticalLabelPosition=bottom;align=center;verticalAlign=top;shape=mxgraph.kubernetes.icon;prIcon=pod" vertex="1" parent="1">
          <mxGeometry x="1160" y="679" width="50" height="48" as="geometry" />
        </mxCell>
        <mxCell id="ZZLIBxus0vvLPx7DRHmL-74" value="" style="sketch=0;html=1;dashed=0;whitespace=wrap;fillColor=#2875E2;strokeColor=#ffffff;points=[[0.005,0.63,0],[0.1,0.2,0],[0.9,0.2,0],[0.5,0,0],[0.995,0.63,0],[0.72,0.99,0],[0.5,1,0],[0.28,0.99,0]];verticalLabelPosition=bottom;align=center;verticalAlign=top;shape=mxgraph.kubernetes.icon;prIcon=pod" vertex="1" parent="1">
          <mxGeometry x="1230" y="679" width="50" height="48" as="geometry" />
        </mxCell>
        <mxCell id="ZZLIBxus0vvLPx7DRHmL-75" value="" style="sketch=0;html=1;dashed=0;whitespace=wrap;fillColor=#2875E2;strokeColor=#ffffff;points=[[0.005,0.63,0],[0.1,0.2,0],[0.9,0.2,0],[0.5,0,0],[0.995,0.63,0],[0.72,0.99,0],[0.5,1,0],[0.28,0.99,0]];verticalLabelPosition=bottom;align=center;verticalAlign=top;shape=mxgraph.kubernetes.icon;prIcon=pod" vertex="1" parent="1">
          <mxGeometry x="1300" y="679" width="50" height="48" as="geometry" />
        </mxCell>
        <mxCell id="ZZLIBxus0vvLPx7DRHmL-76" value="" style="rounded=0;whiteSpace=wrap;html=1;" vertex="1" parent="1">
          <mxGeometry x="1120" y="772" width="280" height="130" as="geometry" />
        </mxCell>
        <mxCell id="ZZLIBxus0vvLPx7DRHmL-77" value="&lt;span style=&quot;font-size: 18px;&quot;&gt;kube-proxy&lt;/span&gt;" style="rounded=0;whiteSpace=wrap;html=1;strokeColor=#001DBC;fillColor=#0050ef;fontColor=#ffffff;" vertex="1" parent="1">
          <mxGeometry x="1120" y="772" width="280" height="30" as="geometry" />
        </mxCell>
        <mxCell id="ZZLIBxus0vvLPx7DRHmL-78" value="" style="rounded=0;whiteSpace=wrap;html=1;" vertex="1" parent="1">
          <mxGeometry x="650" y="780" width="280" height="130" as="geometry" />
        </mxCell>
        <mxCell id="ZZLIBxus0vvLPx7DRHmL-79" value="&lt;span style=&quot;font-size: 18px;&quot;&gt;objects&lt;/span&gt;" style="rounded=0;whiteSpace=wrap;html=1;strokeColor=#001DBC;fillColor=#0050ef;fontColor=#ffffff;" vertex="1" parent="1">
          <mxGeometry x="650" y="780" width="280" height="30" as="geometry" />
        </mxCell>
        <mxCell id="ZZLIBxus0vvLPx7DRHmL-80" value="" style="sketch=0;html=1;dashed=0;whitespace=wrap;fillColor=#2875E2;strokeColor=#ffffff;points=[[0.005,0.63,0],[0.1,0.2,0],[0.9,0.2,0],[0.5,0,0],[0.995,0.63,0],[0.72,0.99,0],[0.5,1,0],[0.28,0.99,0]];verticalLabelPosition=bottom;align=center;verticalAlign=top;shape=mxgraph.kubernetes.icon;prIcon=deploy" vertex="1" parent="1">
          <mxGeometry x="670" y="821" width="50" height="48" as="geometry" />
        </mxCell>
        <mxCell id="ZZLIBxus0vvLPx7DRHmL-81" value="" style="sketch=0;html=1;dashed=0;whitespace=wrap;fillColor=#2875E2;strokeColor=#ffffff;points=[[0.005,0.63,0],[0.1,0.2,0],[0.9,0.2,0],[0.5,0,0],[0.995,0.63,0],[0.72,0.99,0],[0.5,1,0],[0.28,0.99,0]];verticalLabelPosition=bottom;align=center;verticalAlign=top;shape=mxgraph.kubernetes.icon;prIcon=ing" vertex="1" parent="1">
          <mxGeometry x="1370" y="822" width="50" height="48" as="geometry" />
        </mxCell>
        <mxCell id="ZZLIBxus0vvLPx7DRHmL-82" value="" style="sketch=0;html=1;dashed=0;whitespace=wrap;fillColor=#2875E2;strokeColor=#ffffff;points=[[0.005,0.63,0],[0.1,0.2,0],[0.9,0.2,0],[0.5,0,0],[0.995,0.63,0],[0.72,0.99,0],[0.5,1,0],[0.28,0.99,0]];verticalLabelPosition=bottom;align=center;verticalAlign=top;shape=mxgraph.kubernetes.icon;prIcon=k_proxy" vertex="1" parent="1">
          <mxGeometry x="1230" y="832" width="50" height="48" as="geometry" />
        </mxCell>
        <mxCell id="ZZLIBxus0vvLPx7DRHmL-83" value="" style="sketch=0;html=1;dashed=0;whitespace=wrap;fillColor=#2875E2;strokeColor=#ffffff;points=[[0.005,0.63,0],[0.1,0.2,0],[0.9,0.2,0],[0.5,0,0],[0.995,0.63,0],[0.72,0.99,0],[0.5,1,0],[0.28,0.99,0]];verticalLabelPosition=bottom;align=center;verticalAlign=top;shape=mxgraph.kubernetes.icon;prIcon=node" vertex="1" parent="1">
          <mxGeometry x="958.33" y="580" width="133.33" height="128" as="geometry" />
        </mxCell>
        <mxCell id="ZZLIBxus0vvLPx7DRHmL-84" value="" style="sketch=0;html=1;dashed=0;whitespace=wrap;fillColor=#2875E2;strokeColor=#ffffff;points=[[0.005,0.63,0],[0.1,0.2,0],[0.9,0.2,0],[0.5,0,0],[0.995,0.63,0],[0.72,0.99,0],[0.5,1,0],[0.28,0.99,0]];verticalLabelPosition=bottom;align=center;verticalAlign=top;shape=mxgraph.kubernetes.icon;prIcon=sa" vertex="1" parent="1">
          <mxGeometry x="730" y="821" width="50" height="48" as="geometry" />
        </mxCell>
        <mxCell id="ZZLIBxus0vvLPx7DRHmL-85" value="" style="sketch=0;html=1;dashed=0;whitespace=wrap;fillColor=#2875E2;strokeColor=#ffffff;points=[[0.005,0.63,0],[0.1,0.2,0],[0.9,0.2,0],[0.5,0,0],[0.995,0.63,0],[0.72,0.99,0],[0.5,1,0],[0.28,0.99,0]];verticalLabelPosition=bottom;align=center;verticalAlign=top;shape=mxgraph.kubernetes.icon;prIcon=secret" vertex="1" parent="1">
          <mxGeometry x="790" y="821" width="50" height="48" as="geometry" />
        </mxCell>
        <mxCell id="ZZLIBxus0vvLPx7DRHmL-86" value="" style="sketch=0;html=1;dashed=0;whitespace=wrap;fillColor=#2875E2;strokeColor=#ffffff;points=[[0.005,0.63,0],[0.1,0.2,0],[0.9,0.2,0],[0.5,0,0],[0.995,0.63,0],[0.72,0.99,0],[0.5,1,0],[0.28,0.99,0]];verticalLabelPosition=bottom;align=center;verticalAlign=top;shape=mxgraph.kubernetes.icon;prIcon=svc" vertex="1" parent="1">
          <mxGeometry x="850" y="821" width="50" height="48" as="geometry" />
        </mxCell>
        <mxCell id="ZZLIBxus0vvLPx7DRHmL-87" style="edgeStyle=orthogonalEdgeStyle;rounded=0;orthogonalLoop=1;jettySize=auto;html=1;entryX=0.005;entryY=0.63;entryDx=0;entryDy=0;entryPerimeter=0;strokeWidth=3;" edge="1" parent="1" source="ZZLIBxus0vvLPx7DRHmL-81" target="ZZLIBxus0vvLPx7DRHmL-62">
          <mxGeometry relative="1" as="geometry">
            <Array as="points">
              <mxPoint x="1620" y="846" />
              <mxPoint x="1620" y="600" />
              <mxPoint x="1701" y="600" />
            </Array>
          </mxGeometry>
        </mxCell>
      </root>
    </mxGraphModel>
  </diagram>
</mxfile>
